<?xml version="1.0" encoding="utf-8"?>
<!-- Generator: Adobe Illustrator 16.0.0, SVG Export Plug-In . SVG Version: 6.00 Build 0)  -->
<!DOCTYPE svg PUBLIC "-//W3C//DTD SVG 1.1//EN" "http://www.w3.org/Graphics/SVG/1.1/DTD/svg11.dtd">
<svg version="1.1" xmlns="http://www.w3.org/2000/svg" xmlns:xlink="http://www.w3.org/1999/xlink" x="0px" y="0px" width="1282px"
	 height="276px" viewBox="338.5 131 1282 276" enable-background="new 338.5 131 1282 276" xml:space="preserve">
<g id="Original" display="none">
	<g id="Layer_2" display="inline">
		<path d="M476.5,164.94L580.56,269L476.5,373.059L372.441,269L476.5,164.94 M476.5,131l-138,138l138,138l138.001-138L476.5,131
			L476.5,131z"/>
	</g>
	<g id="Layer_3">
		<g display="inline">
			<path d="M484.351,305.864c-3.171-1.109-6.56-1.819-11.169-1.819c-1.932,0-3.883,0.096-5.771,0.188
				c-1.734,0.086-3.699,0.183-5.535,0.183c-0.52,0-1.038-0.007-1.555-0.024c-7.505-0.251-16.371-8.198-13.947-20.141
				s9.103-14.138,8.875-14.667c-0.231-0.534-2.357,0.302-2.543,0.38c-6.192,2.634-11.587,8.762-13.582,15.537
				c-1.489,5.052-0.278,11.874,2.292,15.898c-0.162,0.124-7.042,0.227-18.042,7.102s-13.409,18.817-12.802,19.994
				C411.096,329.509,476,379,476,379c-0.084-0.174-27.083-21.083-29.083-38.833s12.401-26.758,29.167-27.834
				c18.167-1.166,23.958,8.438,23.424,7.007C496.874,312.285,491.292,308.292,484.351,305.864z"/>
			<path d="M437.256,244.81c-0.047,0.73,33.91,6.828,49.114,10.669c7.331,1.853,15.015,4.052,23.491,6.723
				c3.334,1.051,6.689,2.25,9.95,3.415c4.326,1.545,8.8,3.144,13.301,4.423c0.173,0.048,0.349,0.073,0.522,0.073
				c0.895,0,1.695-0.657,1.904-1.566c0.2-0.877-0.205-1.728-1.01-2.116c-6.367-3.066-13.283-5.205-19.983-7.277l-2.393-0.741
				c-7.497-2.335-15.612-4.539-24.81-6.738C471.454,247.879,437.305,244.075,437.256,244.81z"/>
			<path d="M417.033,256.875c0.009,0.771,33.818,2.416,49.047,4.171c7.589,0.874,15.614,2.062,24.533,3.63
				c3.575,0.629,7.202,1.411,10.709,2.167c4.546,0.981,9.246,1.996,13.952,2.701c0.104,0.014,0.204,0.021,0.303,0.021
				c0.982,0,1.807-0.7,1.961-1.662c0.154-0.948-0.393-1.826-1.331-2.134c-6.797-2.238-14.023-3.469-21.012-4.658l-2.561-0.437
				c-7.234-1.248-15.085-2.322-24-3.286C455.744,255.996,417.025,256.106,417.033,256.875z"/>
			<path d="M547,246c-6.564-6.422-20-17.125-34.5-21.5s-43.53-5.958-48-5.333c-8.167-5.667-17-8.25-24-9.667
				c-0.798-0.161-1.5,4.333-3.25,7.833s-4.375,6.167-4.375,6.167s-37.011,15.096-45.625,18.25
				c-13.257,4.855-24.196,15.921-28.043,18.41c-4.693,3.036,27.661,34.039,27.793,30.09c0.48-14.42,6.193-34.237,24.912-44.27
				c1.167-0.625,2.413-1.229,3.619-1.813c0.891-0.432,1.782-0.864,2.658-1.311l2.68-1.368c3.197-1.631,12.257-6.114,12.257-6.114
				s-0.229,3.417,0.208,3.542c0.249,0.071,5.417-5.417,8.5-10.667s3.833-8.667,4.667-9.25c0.442-0.31,8.834,2.954,15.583,8.167
				c5.96,4.604,14.917,14.771,15.229,14.708s-2.438-8.813-7.188-14.375c1.68-0.065,31.829,1.674,44.75,6.75
				c6.944,2.728,17.897,8.628,24.595,15.46c4.522,4.617,8.704,9.835,12.743,14.944c-1.879-1.021-3.857-1.838-5.796-2.638
				l-0.943-0.39c-8.459-3.514-23.316-6.394-23.421-5.69c-0.1,0.696,23.587,8.777,33.146,16.114l-11.999,9.247
				c-0.236,0.182-0.481,0.375-0.731,0.573c-1.729,1.364-3.879,3.062-5.841,3.062c-0.449,0-0.887-0.091-1.299-0.271
				c-1.359-0.593-2.358-2.324-3.239-3.852c-0.192-0.333-0.379-0.654-0.563-0.958c-2.888-4.742-6.117-7.031-10.799-7.657
				c-0.597-0.079-1.216-0.119-1.841-0.119c-4.465,0-8.787,1.937-13.189,4.094c-5.015,2.456-20.889,11.537-14.623,25.284
				c1.785,3.911,6.103,6.972,11.553,8.188c0.252,0.056,0.508,0.106,0.764,0.152c2.716,2.739,6.237,4.46,9.895,4.864
				c-0.858,1.405-1.92,4.366-4.41,6.28c-2.648,2.037-6.261,2.063-6.344,2.313s6.095,2.668,12.053-0.604
				c2.522-1.386,7.03-4.881,9.291-9.458c3.079-6.231,3.648-13.473,3.414-13.473c-1.403,0-4.887,3.708-5.205,3.118
				c-0.517-0.956-0.792-2.125-0.792-2.125s-1.003,0.519-1.354,0.646c-4.11,1.494-9.019,2.658-13.094,2.659
				c-1.223,0-2.416-0.127-3.547-0.378c-4.574-1.016-7.644-4.481-7.638-8.624c0.006-4.019,2.916-7.827,8.647-11.32
				c5.434-3.311,9.85-5.065,13.896-5.519c2.277-0.255,4.036,0.268,5.672,1.742c1.823,5.057,1.902,10.608,0.22,15.657l-0.563,1.689
				l1.877,0.015c4.561,0,10.842-5.608,11.759-6.025c3.533-1.606,9.452-3.807,16-8.75c6.078-4.587,12.954-10.092,13-10.5
				C566.615,268.08,552.36,251.244,547,246z"/>
			<path d="M504.626,247.042c0.102,0.749,8.026,0.748,8.184,0.672c6.343,2.532,21.035,6.616,22.645,5.983
				c0.343-0.135-1.823-2.42-5.329-4.947c-6.029-4.346-15.805-10.148-21.115-12.289c-0.213-0.086-0.434-0.129-0.657-0.129
				c-0.62,0-1.186,0.332-1.508,0.88c-0.347,0.576-0.369,1.287-0.059,1.854c0.76,1.393,1.424,2.89,2.066,4.338
				c0.196,0.443,0.394,0.887,0.593,1.328l-0.018,0.002C508.191,244.922,504.521,246.297,504.626,247.042z"/>
		</g>
	</g>
	<g id="Layer_3_copy" display="inline">
		<g>
			<path d="M484.351,305.864c-3.171-1.109-6.56-1.819-11.169-1.819c-1.932,0-3.883,0.096-5.771,0.188
				c-1.734,0.086-3.699,0.183-5.535,0.183c-0.52,0-1.038-0.007-1.555-0.024c-7.505-0.251-16.371-8.198-13.947-20.141
				s9.103-14.138,8.875-14.667c-0.231-0.534-2.357,0.302-2.543,0.38c-6.192,2.634-11.587,8.762-13.582,15.537
				c-1.489,5.052-0.278,11.874,2.292,15.898c-0.162,0.124-7.042,0.227-18.042,7.102s-13.409,18.817-12.802,19.994
				C411.096,329.509,476,379,476,379c-0.084-0.174-27.083-21.083-29.083-38.833s12.401-26.758,29.167-27.834
				c18.167-1.166,23.958,8.438,23.424,7.007C496.874,312.285,491.292,308.292,484.351,305.864z"/>
			<path d="M547,246c-6.564-6.422-20-17.125-34.5-21.5s-43.53-5.958-48-5.333c-8.167-5.667-17-8.25-24-9.667
				c-0.798-0.161-1.5,4.333-3.25,7.833s-4.375,6.167-4.375,6.167s-37.011,15.096-45.625,18.25
				c-13.257,4.855-24.196,15.921-28.043,18.41c-4.693,3.036,27.661,34.039,27.793,30.09c0.48-14.42,6.193-34.237,24.912-44.27
				c1.167-0.625,2.413-1.229,3.619-1.813c0.891-0.432,1.782-0.864,2.658-1.311l2.68-1.368c3.197-1.631,12.257-6.114,12.257-6.114
				s-0.229,3.417,0.208,3.542c0.249,0.071,5.417-5.417,8.5-10.667s3.833-8.667,4.667-9.25c0.442-0.31,8.834,2.954,15.583,8.167
				c5.96,4.604,14.917,14.771,15.229,14.708s-2.438-8.813-7.188-14.375c1.68-0.065,31.829,1.674,44.75,6.75
				c6.944,2.728,17.897,8.628,24.595,15.46c4.522,4.617,8.704,9.835,12.743,14.944c-1.879-1.021-3.857-1.838-5.796-2.638
				l-0.943-0.39c-8.459-3.514-23.316-6.394-23.421-5.69c-0.1,0.696,23.587,8.777,33.146,16.114l-11.999,9.247
				c-0.236,0.182-0.481,0.375-0.731,0.573c-1.729,1.364-3.879,3.062-5.841,3.062c-0.449,0-0.887-0.091-1.299-0.271
				c-1.359-0.593-2.358-2.324-3.239-3.852c-0.192-0.333-0.379-0.654-0.563-0.958c-2.888-4.742-6.117-7.031-10.799-7.657
				c-0.597-0.079-1.216-0.119-1.841-0.119c-4.465,0-8.787,1.937-13.189,4.094c-5.015,2.456-20.889,11.537-14.623,25.284
				c1.785,3.911,6.103,6.972,11.553,8.188c0.252,0.056,0.508,0.106,0.764,0.152c2.716,2.739,6.237,4.46,9.895,4.864
				c-0.858,1.405-1.92,4.366-4.41,6.28c-2.648,2.037-6.261,2.063-6.344,2.313s6.095,2.668,12.053-0.604
				c2.522-1.386,7.03-4.881,9.291-9.458c3.079-6.231,3.648-13.473,3.414-13.473c-1.403,0-4.887,3.708-5.205,3.118
				c-0.517-0.956-0.792-2.125-0.792-2.125s-1.003,0.519-1.354,0.646c-4.11,1.494-9.019,2.658-13.094,2.659
				c-1.223,0-2.416-0.127-3.547-0.378c-4.574-1.016-7.644-4.481-7.638-8.624c0.006-4.019,2.916-7.827,8.647-11.32
				c5.434-3.311,9.85-5.065,13.896-5.519c2.277-0.255,4.036,0.268,5.672,1.742c1.823,5.057,1.902,10.608,0.22,15.657l-0.563,1.689
				l1.877,0.015c4.561,0,10.842-5.608,11.759-6.025c3.533-1.606,9.452-3.807,16-8.75c6.078-4.587,12.954-10.092,13-10.5
				C566.615,268.08,552.36,251.244,547,246z"/>
			<path d="M504.626,247.042c0.102,0.749,8.026,0.748,8.184,0.672c6.343,2.532,21.035,6.616,22.645,5.983
				c0.343-0.135-1.823-2.42-5.329-4.947c-6.029-4.346-15.805-10.148-21.115-12.289c-0.213-0.086-0.434-0.129-0.657-0.129
				c-0.62,0-1.186,0.332-1.508,0.88c-0.347,0.576-0.369,1.287-0.059,1.854c0.76,1.393,1.424,2.89,2.066,4.338
				c0.196,0.443,0.394,0.887,0.593,1.328l-0.018,0.002C508.191,244.922,504.521,246.297,504.626,247.042z"/>
		</g>
	</g>
	<g id="Layer_10" display="inline">
		<path d="M528.334,265.208c0,0-15.355-9.281-33.167-13.542c-23.167-5.542-52,0.167-52,0.167s25.155-1.219,46.083,2.542
			c21.333,3.833,34.376,13.334,35.126,13.792s4.25,2.625,5.666,1.125C531.864,267.362,528.334,265.208,528.334,265.208z"/>
		<path d="M507.141,262.927c0,0-17.171-5.205-35.482-4.94c-23.818,0.345-50.353,12.991-50.353,12.991s24.078-7.388,45.286-8.907
			c21.619-1.548,36.603,4.441,37.443,4.7c0.84,0.259,4.767,1.495,5.769-0.308C511.094,264.144,507.141,262.927,507.141,262.927z"/>
	</g>
	<g id="Layer_4" display="inline">
		<g>
			<path d="M675.046,312.458l-0.325-81.363l39.214-0.157c11.676-0.047,20.388,2.404,26.133,7.354
				c5.744,4.948,8.635,11.605,8.668,19.967c0.018,4.369-0.627,8.327-1.929,11.872c-1.306,3.547-3.348,6.569-6.123,9.065
				c-2.778,2.498-6.274,4.416-10.487,5.749c-4.215,1.337-9.26,2.016-15.135,2.039l-13.448,0.054l0.102,25.313L675.046,312.458z
				 M712.613,268.009c3.163-0.013,5.74-0.718,7.731-2.122c1.989-1.401,2.979-3.872,2.966-7.414
				c-0.008-1.882-0.485-3.388-1.432-4.514c-0.945-1.126-2.137-1.988-3.568-2.586c-1.435-0.595-2.981-0.985-4.638-1.167
				c-1.661-0.181-3.205-0.271-4.635-0.265l-7.572,0.03l0.072,18.081L712.613,268.009z"/>
			<path d="M797.541,311.969l-1.155-6.324c-3.303,3.104-6.741,5.226-10.313,6.37c-3.575,1.144-7.548,1.726-11.917,1.742
				c-2.788,0.012-5.463-0.336-8.027-1.043c-2.564-0.703-4.809-1.787-6.736-3.248c-1.927-1.462-3.479-3.3-4.654-5.52
				c-1.179-2.217-1.772-4.87-1.784-7.96c-0.019-4.443,1.002-7.932,3.065-10.465c2.062-2.531,4.653-4.443,7.774-5.739
				c3.12-1.292,6.507-2.189,10.159-2.696c3.652-0.503,7.041-0.97,10.167-1.396c3.122-0.427,5.72-1.001,7.79-1.727
				c2.068-0.723,3.1-2.027,3.093-3.911c-0.005-1.055-0.291-1.901-0.858-2.54c-0.568-0.637-1.248-1.125-2.041-1.46
				c-0.791-0.335-1.642-0.56-2.544-0.667c-0.906-0.11-1.66-0.164-2.261-0.162c-0.831,0.003-1.696,0.064-2.599,0.182
				c-0.904,0.115-1.75,0.384-2.539,0.8c-0.791,0.417-1.466,1.005-2.028,1.76c-0.563,0.756-0.917,1.774-1.062,3.055l-22.601,0.09
				c-0.013-3.163,0.559-5.972,1.719-8.426c1.156-2.451,3.032-4.532,5.625-6.237c2.591-1.706,5.919-3.019,9.986-3.939
				c4.064-0.92,9.034-1.393,14.91-1.416c7.006-0.028,12.488,0.572,16.448,1.799c3.962,1.228,6.943,2.93,8.949,5.107
				c2.004,2.177,3.24,4.752,3.703,7.725c0.465,2.976,0.705,6.232,0.719,9.772l0.111,27.686c0.007,1.734,0.161,3.107,0.467,4.123
				c0.304,1.016,1.213,2.163,2.725,3.437l0.005,1.13L797.541,311.969z M784.726,300.38c2.035-0.008,3.744-0.391,5.136-1.15
				c1.392-0.759,2.499-1.799,3.322-3.12c0.824-1.321,1.382-2.868,1.677-4.641c0.293-1.771,0.361-3.674,0.204-5.707
				c-1.957,0.912-3.97,1.58-6.039,2c-2.071,0.424-3.989,0.883-5.758,1.38c-1.769,0.498-3.216,1.199-4.343,2.108
				c-1.126,0.907-1.685,2.307-1.678,4.188c0.007,1.509,0.67,2.709,1.992,3.607C780.562,299.944,782.391,300.39,784.726,300.38z"/>
			<path d="M830.755,252.619l21.47-0.086l0.037,9.268c2.622-3.551,5.492-6.275,8.612-8.171c3.117-1.896,6.899-2.854,11.346-2.872
				c7.835-0.032,13.626,2.132,17.372,6.486c3.747,4.355,5.638,10.639,5.67,18.85l0.143,35.483l-23.505,0.094l-0.125-31.302
				c-0.006-1.431-0.126-2.825-0.356-4.179c-0.231-1.356-0.671-2.541-1.314-3.555c-0.646-1.015-1.496-1.82-2.552-2.42
				c-1.058-0.598-2.416-0.894-4.072-0.887c-3.616,0.015-6.042,1.097-7.276,3.249s-1.842,5.15-1.827,8.992l0.121,30.172
				l-23.506,0.095L830.755,252.619z"/>
			<path d="M945.465,311.377c-7.684,0.481-13.824,0.618-18.418,0.412c-4.598-0.207-8.085-1.021-10.464-2.444
				c-2.379-1.42-3.933-3.616-4.659-6.592c-0.73-2.973-1.103-7.02-1.123-12.144l-0.1-24.749l-8.363,0.033l-0.054-13.561l8.703-0.035
				l-0.073-18.42l23.164-0.092l0.074,18.419l11.301-0.045l0.054,13.56l-11.301,0.045l0.087,21.556
				c0.005,1.361,0.085,2.515,0.24,3.459c0.154,0.946,0.477,1.699,0.97,2.265c0.491,0.565,1.228,0.979,2.208,1.238
				c0.979,0.263,2.3,0.39,3.957,0.383l3.73-0.015L945.465,311.377z"/>
			<path d="M956.213,229.969l23.505-0.094l0.118,29.607c2.397-3.021,4.987-5.312,7.769-6.868c2.782-1.554,6.168-2.342,10.162-2.358
				c7.835-0.031,13.627,2.132,17.372,6.486c3.747,4.355,5.637,10.639,5.669,18.85l0.142,35.483l-23.503,0.094l-0.126-31.303
				c-0.005-1.431-0.125-2.825-0.355-4.179c-0.231-1.355-0.671-2.54-1.313-3.554c-0.646-1.015-1.497-1.82-2.553-2.42
				c-1.06-0.598-2.416-0.894-4.072-0.887c-3.616,0.015-6.042,1.097-7.276,3.249s-1.843,5.15-1.828,8.992l0.121,30.172l-23.505,0.094
				L956.213,229.969z"/>
			<path d="M1053.397,286.648c0.007,1.732,0.333,3.315,0.979,4.742c0.646,1.429,1.498,2.65,2.558,3.664
				c1.058,1.012,2.286,1.798,3.683,2.357c1.395,0.56,2.884,0.835,4.466,0.829c1.883-0.008,3.616-0.447,5.194-1.32
				c1.577-0.872,2.776-2.176,3.601-3.912l22.489-0.09c-1.042,3.695-2.67,6.789-4.881,9.286c-2.212,2.494-4.804,4.521-7.771,6.077
				c-2.972,1.557-6.189,2.66-9.65,3.315c-3.464,0.651-6.927,0.988-10.394,1.002c-4.745,0.019-9.175-0.624-13.284-1.926
				c-4.112-1.299-7.68-3.246-10.704-5.833c-3.023-2.587-5.41-5.798-7.156-9.633c-1.749-3.835-2.632-8.239-2.651-13.212
				c-0.02-4.82,0.828-9.212,2.546-13.175c1.715-3.962,4.057-7.323,7.021-10.086c2.965-2.761,6.498-4.903,10.599-6.427
				c4.1-1.522,8.522-2.295,13.269-2.314c5.499-0.022,10.418,0.864,14.759,2.654c4.338,1.791,8.021,4.301,11.048,7.528
				c3.025,3.227,5.322,7.081,6.883,11.556c1.563,4.476,2.314,9.39,2.264,14.737L1053.397,286.648z M1074.707,274.584
				c-0.005-1.355-0.293-2.654-0.861-3.894c-0.57-1.242-1.329-2.331-2.273-3.268c-0.947-0.938-2.061-1.687-3.343-2.248
				c-1.283-0.559-2.603-0.837-3.958-0.832c-3.543,0.014-6.251,0.949-8.126,2.802c-1.878,1.854-2.809,4.362-2.796,7.525
				L1074.707,274.584z"/>
			<path d="M1107.499,251.512l21.359-0.085l0.048,11.979l0.227-0.001c1.638-4.676,3.923-8.132,6.852-10.366
				c2.93-2.233,6.691-3.362,11.287-3.38c0.526-0.002,1.034,0.036,1.525,0.108c0.49,0.073,0.999,0.146,1.527,0.219l0.094,23.505
				c-0.831-0.146-1.639-0.293-2.433-0.441c-0.791-0.146-1.602-0.22-2.429-0.217c-4.823,0.02-8.435,1.315-10.834,3.886
				c-2.402,2.571-3.588,7.06-3.563,13.461l0.082,20.454l-23.506,0.094L1107.499,251.512z"/>
			<path d="M1196.104,310.374l-0.325-81.363l39.214-0.157c11.677-0.047,20.388,2.404,26.134,7.354
				c5.744,4.948,8.635,11.605,8.668,19.967c0.018,4.369-0.627,8.327-1.931,11.872c-1.305,3.547-3.347,6.569-6.122,9.065
				c-2.779,2.498-6.275,4.416-10.486,5.749c-4.215,1.337-9.261,2.016-15.136,2.039l-13.447,0.054l0.102,25.313L1196.104,310.374z
				 M1233.672,265.925c3.162-0.013,5.74-0.718,7.731-2.122c1.99-1.401,2.979-3.872,2.966-7.414
				c-0.008-1.882-0.486-3.388-1.431-4.514c-0.947-1.126-2.138-1.988-3.57-2.586c-1.434-0.595-2.98-0.985-4.638-1.167
				c-1.658-0.181-3.204-0.27-4.635-0.265l-7.571,0.03l0.073,18.081L1233.672,265.925z"/>
			<path d="M1318.6,309.885l-1.155-6.324c-3.303,3.104-6.741,5.226-10.313,6.37c-3.574,1.144-7.548,1.726-11.915,1.742
				c-2.789,0.012-5.465-0.336-8.027-1.043c-2.565-0.703-4.81-1.787-6.737-3.248c-1.928-1.462-3.479-3.3-4.655-5.52
				c-1.179-2.217-1.771-4.87-1.784-7.96c-0.018-4.443,1.003-7.932,3.064-10.465c2.063-2.531,4.653-4.444,7.776-5.739
				c3.119-1.292,6.507-2.189,10.16-2.696c3.651-0.503,7.039-0.97,10.165-1.396c3.123-0.427,5.719-1.001,7.789-1.727
				c2.07-0.723,3.101-2.027,3.093-3.911c-0.004-1.055-0.29-1.901-0.856-2.54c-0.569-0.637-1.249-1.125-2.041-1.46
				c-0.793-0.335-1.641-0.56-2.546-0.667c-0.904-0.11-1.659-0.164-2.261-0.162c-0.83,0.003-1.694,0.064-2.599,0.182
				c-0.903,0.115-1.749,0.384-2.538,0.8c-0.791,0.417-1.465,1.005-2.027,1.76c-0.563,0.756-0.917,1.774-1.062,3.055l-22.601,0.09
				c-0.014-3.163,0.558-5.972,1.718-8.426c1.157-2.451,3.031-4.532,5.624-6.237c2.594-1.706,5.92-3.018,9.986-3.939
				c4.064-0.92,9.036-1.393,14.911-1.416c7.007-0.028,12.488,0.572,16.45,1.799c3.96,1.228,6.941,2.93,8.948,5.107
				c2.004,2.177,3.24,4.752,3.704,7.725c0.463,2.976,0.703,6.232,0.717,9.773l0.11,27.685c0.007,1.734,0.162,3.108,0.468,4.123
				c0.303,1.016,1.214,2.163,2.726,3.437l0.005,1.13L1318.6,309.885z M1305.783,298.296c2.035-0.008,3.745-0.391,5.139-1.15
				c1.39-0.759,2.496-1.799,3.321-3.12c0.823-1.321,1.381-2.867,1.676-4.641c0.295-1.771,0.361-3.674,0.204-5.707
				c-1.957,0.912-3.969,1.58-6.039,2c-2.072,0.424-3.99,0.883-5.758,1.38c-1.768,0.498-3.217,1.199-4.342,2.108
				c-1.126,0.908-1.686,2.307-1.678,4.188c0.006,1.509,0.668,2.709,1.991,3.607C1301.62,297.86,1303.449,298.306,1305.783,298.296z"
				/>
			<path d="M1351.813,250.535l21.471-0.086l0.037,9.268c2.621-3.551,5.494-6.275,8.612-8.171c3.118-1.896,6.899-2.854,11.346-2.872
				c7.835-0.032,13.627,2.132,17.373,6.486c3.745,4.355,5.636,10.639,5.669,18.85l0.142,35.483l-23.505,0.094l-0.125-31.302
				c-0.006-1.431-0.124-2.825-0.355-4.179c-0.232-1.356-0.67-2.541-1.314-3.555c-0.645-1.015-1.496-1.82-2.553-2.42
				c-1.058-0.598-2.415-0.894-4.07-0.887c-3.617,0.015-6.043,1.097-7.276,3.249c-1.235,2.152-1.844,5.15-1.828,8.992l0.12,30.172
				l-23.505,0.095L1351.813,250.535z"/>
			<path d="M1466.523,309.293c-7.684,0.481-13.824,0.618-18.419,0.412c-4.597-0.206-8.083-1.021-10.463-2.444
				c-2.378-1.42-3.934-3.616-4.66-6.592c-0.729-2.973-1.103-7.02-1.122-12.144l-0.1-24.749l-8.361,0.033l-0.054-13.561l8.701-0.035
				l-0.074-18.42l23.166-0.092l0.073,18.419l11.301-0.045l0.055,13.561l-11.301,0.045l0.086,21.556
				c0.006,1.361,0.084,2.515,0.24,3.459c0.153,0.946,0.477,1.699,0.97,2.266c0.491,0.564,1.228,0.978,2.208,1.237
				c0.979,0.263,2.299,0.39,3.957,0.383l3.729-0.015L1466.523,309.293z"/>
			<path d="M1477.811,250.031l21.358-0.085l0.048,11.979l0.228-0.001c1.636-4.676,3.923-8.132,6.852-10.366
				c2.929-2.233,6.69-3.362,11.287-3.38c0.525-0.002,1.034,0.036,1.524,0.108c0.491,0.073,1,0.146,1.527,0.218l0.095,23.506
				c-0.831-0.146-1.64-0.293-2.433-0.441c-0.792-0.146-1.602-0.22-2.43-0.217c-4.822,0.019-8.435,1.315-10.833,3.886
				c-2.403,2.571-3.589,7.06-3.563,13.462l0.081,20.453l-23.505,0.095L1477.811,250.031z"/>
			<path d="M1558.98,286.209l10.137-36.543l22.601-0.09l-18.764,55.335c-1.563,4.601-3,8.449-4.305,11.545
				c-1.307,3.093-2.955,5.566-4.943,7.421c-1.987,1.854-4.563,3.184-7.724,3.987c-3.162,0.804-7.342,1.215-12.539,1.235
				c-2.186,0.009-4.238-0.059-6.16-0.201c-1.922-0.144-3.335-0.212-4.237-0.208l-0.065-16.386c0.828-0.004,1.638,0.011,2.429,0.046
				c0.792,0.034,1.601,0.05,2.431,0.047c3.689-0.015,6.023-0.646,6.998-1.893c0.974-1.247,0.851-3.523-0.367-6.835l-19.65-53.827
				l23.617-0.094L1558.98,286.209z"/>
		</g>
	</g>
	<g id="Layer_8" display="inline">
		<g>
			<g>
				<path fill="#FFFFFF" d="M501.166,246.75c5.804,0,5.804-9,0-9S495.362,246.75,501.166,246.75L501.166,246.75z"/>
			</g>
		</g>
		<g>
			<g>
				<path fill="#FFFFFF" d="M500.916,246.75c5.16,0.464,10.379,3.866,15.138,5.756c4.292,1.705,7.486-4.58,4.378-7.521
					c-2.949-2.791-7.841-4.936-9.88-8.506c-2.356,1.818-4.712,3.636-7.067,5.454c2.598,2.86,7.566,4.77,11.01,6.439
					c5.166,2.504,10.526,4.604,15.734,7.014c5.23,2.421,9.806-5.335,4.543-7.771c-4.716-2.183-9.508-4.205-14.25-6.333
					c-2.01-0.902-3.909-1.872-5.75-3.083c-1.541-1.014-3.674-1.253-4.924-2.63c-3.505-3.859-9.561,1.089-7.067,5.454
					c2.593,4.54,7.602,6.839,11.288,10.328c1.459-2.507,2.919-5.014,4.378-7.521c-5.739-2.279-11.288-5.516-17.53-6.078
					C495.134,237.229,495.184,246.234,500.916,246.75L500.916,246.75z"/>
			</g>
		</g>
	</g>
	<g id="Layer_6" display="inline">
		<path d="M501.174,237.529c0,0,11.172-0.354,18.249,3.781c7.078,4.138,8.445,6.193,18.258,11.631c0,0-8.594,2.04-16-1.443
			c-7.409-3.482-7.432-7.226-8.964-8.662C511.183,241.401,501.174,237.529,501.174,237.529z"/>
	</g>
</g>
<g id="Final">
	<g id="Layer_4_copy">
		<g>
			<path fill="#FFFFFF" d="M675.046,312.458l-0.325-81.363l39.214-0.157c11.676-0.047,20.388,2.404,26.133,7.354
				c5.744,4.948,8.635,11.605,8.668,19.967c0.018,4.369-0.627,8.327-1.929,11.872c-1.306,3.547-3.348,6.569-6.123,9.065
				c-2.778,2.498-6.274,4.416-10.487,5.749c-4.215,1.337-9.26,2.016-15.135,2.039l-13.448,0.054l0.102,25.313L675.046,312.458z
				 M712.613,268.009c3.163-0.013,5.74-0.718,7.731-2.122c1.989-1.401,2.979-3.872,2.966-7.414
				c-0.008-1.882-0.485-3.388-1.432-4.514c-0.945-1.126-2.137-1.988-3.568-2.586c-1.435-0.595-2.981-0.985-4.638-1.167
				c-1.661-0.181-3.205-0.271-4.635-0.265l-7.572,0.03l0.072,18.081L712.613,268.009z"/>
			<path fill="#FFFFFF" d="M797.541,311.969l-1.155-6.324c-3.303,3.104-6.741,5.226-10.313,6.37
				c-3.575,1.144-7.548,1.726-11.917,1.742c-2.788,0.012-5.463-0.336-8.027-1.043c-2.564-0.703-4.809-1.787-6.736-3.248
				c-1.927-1.462-3.479-3.3-4.654-5.52c-1.179-2.217-1.772-4.87-1.784-7.96c-0.019-4.443,1.002-7.932,3.065-10.465
				c2.062-2.531,4.653-4.443,7.774-5.739c3.12-1.292,6.507-2.189,10.159-2.696c3.652-0.503,7.041-0.97,10.167-1.396
				c3.122-0.427,5.72-1.001,7.79-1.727c2.068-0.723,3.1-2.027,3.093-3.911c-0.005-1.055-0.291-1.901-0.858-2.54
				c-0.568-0.637-1.248-1.125-2.041-1.46c-0.791-0.335-1.642-0.56-2.544-0.667c-0.906-0.11-1.66-0.164-2.261-0.162
				c-0.831,0.003-1.696,0.064-2.599,0.182c-0.904,0.115-1.75,0.384-2.539,0.8c-0.791,0.417-1.466,1.005-2.028,1.76
				c-0.563,0.756-0.917,1.774-1.062,3.055l-22.601,0.09c-0.013-3.163,0.559-5.972,1.719-8.426c1.156-2.451,3.032-4.532,5.625-6.237
				c2.591-1.706,5.919-3.019,9.986-3.939c4.064-0.92,9.034-1.393,14.91-1.416c7.006-0.028,12.488,0.572,16.448,1.799
				c3.962,1.228,6.943,2.93,8.949,5.107c2.004,2.177,3.24,4.752,3.703,7.725c0.465,2.976,0.705,6.232,0.719,9.772l0.111,27.686
				c0.007,1.734,0.161,3.107,0.467,4.123c0.304,1.016,1.213,2.163,2.725,3.437l0.005,1.13L797.541,311.969z M784.726,300.38
				c2.035-0.008,3.744-0.391,5.136-1.15c1.392-0.759,2.499-1.799,3.322-3.12c0.824-1.321,1.382-2.868,1.677-4.641
				c0.293-1.771,0.361-3.674,0.204-5.707c-1.957,0.912-3.97,1.58-6.039,2c-2.071,0.424-3.989,0.883-5.758,1.38
				c-1.769,0.498-3.216,1.199-4.343,2.108c-1.126,0.907-1.685,2.307-1.678,4.188c0.007,1.509,0.67,2.709,1.992,3.607
				C780.562,299.944,782.391,300.39,784.726,300.38z"/>
			<path fill="#FFFFFF" d="M830.755,252.619l21.47-0.086l0.037,9.268c2.622-3.551,5.492-6.275,8.612-8.171
				c3.117-1.896,6.899-2.854,11.346-2.872c7.835-0.032,13.626,2.132,17.372,6.486c3.747,4.355,5.638,10.639,5.67,18.85l0.143,35.483
				l-23.505,0.094l-0.125-31.302c-0.006-1.431-0.126-2.825-0.356-4.179c-0.231-1.356-0.671-2.541-1.314-3.555
				c-0.646-1.015-1.496-1.82-2.552-2.42c-1.058-0.598-2.416-0.894-4.072-0.887c-3.616,0.015-6.042,1.097-7.276,3.249
				s-1.842,5.15-1.827,8.992l0.121,30.172l-23.506,0.095L830.755,252.619z"/>
			<path fill="#FFFFFF" d="M945.465,311.377c-7.684,0.481-13.824,0.618-18.418,0.412c-4.598-0.207-8.085-1.021-10.464-2.444
				c-2.379-1.42-3.933-3.616-4.659-6.592c-0.73-2.973-1.103-7.02-1.123-12.144l-0.1-24.749l-8.363,0.033l-0.054-13.561l8.703-0.035
				l-0.073-18.42l23.164-0.092l0.074,18.419l11.301-0.045l0.054,13.56l-11.301,0.045l0.087,21.556
				c0.005,1.361,0.085,2.515,0.24,3.459c0.154,0.946,0.477,1.699,0.97,2.265c0.491,0.565,1.228,0.979,2.208,1.238
				c0.979,0.263,2.3,0.39,3.957,0.383l3.73-0.015L945.465,311.377z"/>
			<path fill="#FFFFFF" d="M956.213,229.969l23.505-0.094l0.118,29.607c2.397-3.021,4.987-5.312,7.769-6.868
				c2.782-1.554,6.168-2.342,10.162-2.358c7.835-0.031,13.627,2.132,17.372,6.486c3.747,4.355,5.637,10.639,5.669,18.85
				l0.142,35.483l-23.503,0.094l-0.126-31.303c-0.005-1.431-0.125-2.825-0.355-4.179c-0.231-1.355-0.671-2.54-1.313-3.554
				c-0.646-1.015-1.497-1.82-2.553-2.42c-1.06-0.598-2.416-0.894-4.072-0.887c-3.616,0.015-6.042,1.097-7.276,3.249
				s-1.843,5.15-1.828,8.992l0.121,30.172l-23.505,0.094L956.213,229.969z"/>
			<path fill="#FFFFFF" d="M1053.397,286.648c0.007,1.732,0.333,3.315,0.979,4.742c0.646,1.429,1.498,2.65,2.558,3.664
				c1.058,1.012,2.286,1.798,3.683,2.357c1.395,0.56,2.884,0.835,4.466,0.829c1.883-0.008,3.616-0.447,5.194-1.32
				c1.577-0.872,2.776-2.176,3.601-3.912l22.489-0.09c-1.042,3.695-2.67,6.789-4.881,9.286c-2.212,2.494-4.804,4.521-7.771,6.077
				c-2.972,1.557-6.189,2.66-9.65,3.315c-3.464,0.651-6.927,0.988-10.394,1.002c-4.745,0.019-9.175-0.624-13.284-1.926
				c-4.112-1.299-7.68-3.246-10.704-5.833c-3.023-2.587-5.41-5.798-7.156-9.633c-1.749-3.835-2.632-8.239-2.651-13.212
				c-0.02-4.82,0.828-9.212,2.546-13.175c1.715-3.962,4.057-7.323,7.021-10.086c2.965-2.761,6.498-4.903,10.599-6.427
				c4.1-1.522,8.522-2.295,13.269-2.314c5.499-0.022,10.418,0.864,14.759,2.654c4.338,1.791,8.021,4.301,11.048,7.528
				c3.025,3.227,5.322,7.081,6.883,11.556c1.563,4.476,2.314,9.39,2.264,14.737L1053.397,286.648z M1074.707,274.584
				c-0.005-1.355-0.293-2.654-0.861-3.894c-0.57-1.242-1.329-2.331-2.273-3.268c-0.947-0.938-2.061-1.687-3.343-2.248
				c-1.283-0.559-2.603-0.837-3.958-0.832c-3.543,0.014-6.251,0.949-8.126,2.802c-1.878,1.854-2.809,4.362-2.796,7.525
				L1074.707,274.584z"/>
			<path fill="#FFFFFF" d="M1107.499,251.512l21.359-0.085l0.048,11.979l0.227-0.001c1.638-4.676,3.923-8.132,6.852-10.366
				c2.93-2.233,6.691-3.362,11.287-3.38c0.526-0.002,1.034,0.036,1.525,0.108c0.49,0.073,0.999,0.146,1.527,0.219l0.094,23.505
				c-0.831-0.146-1.639-0.293-2.433-0.441c-0.791-0.146-1.602-0.22-2.429-0.217c-4.823,0.02-8.435,1.315-10.834,3.886
				c-2.402,2.571-3.588,7.06-3.563,13.461l0.082,20.454l-23.506,0.094L1107.499,251.512z"/>
			<path fill="#FFFFFF" d="M1196.104,310.374l-0.325-81.363l39.214-0.157c11.677-0.047,20.388,2.404,26.134,7.354
				c5.744,4.948,8.635,11.605,8.668,19.967c0.018,4.369-0.627,8.327-1.931,11.872c-1.305,3.547-3.347,6.569-6.122,9.065
				c-2.779,2.498-6.275,4.416-10.486,5.749c-4.215,1.337-9.261,2.016-15.136,2.039l-13.447,0.054l0.102,25.313L1196.104,310.374z
				 M1233.672,265.925c3.162-0.013,5.74-0.718,7.731-2.122c1.99-1.401,2.979-3.872,2.966-7.414
				c-0.008-1.882-0.486-3.388-1.431-4.514c-0.947-1.126-2.138-1.988-3.57-2.586c-1.434-0.595-2.98-0.985-4.638-1.167
				c-1.658-0.181-3.204-0.27-4.635-0.265l-7.571,0.03l0.073,18.081L1233.672,265.925z"/>
			<path fill="#FFFFFF" d="M1318.6,309.885l-1.155-6.324c-3.303,3.104-6.741,5.226-10.313,6.37
				c-3.574,1.144-7.548,1.726-11.915,1.742c-2.789,0.012-5.465-0.336-8.027-1.043c-2.565-0.703-4.81-1.787-6.737-3.248
				c-1.928-1.462-3.479-3.3-4.655-5.52c-1.179-2.217-1.771-4.87-1.784-7.96c-0.018-4.443,1.003-7.932,3.064-10.465
				c2.063-2.531,4.653-4.444,7.776-5.739c3.119-1.292,6.507-2.189,10.16-2.696c3.651-0.503,7.039-0.97,10.165-1.396
				c3.123-0.427,5.719-1.001,7.789-1.727c2.07-0.723,3.101-2.027,3.093-3.911c-0.004-1.055-0.29-1.901-0.856-2.54
				c-0.569-0.637-1.249-1.125-2.041-1.46c-0.793-0.335-1.641-0.56-2.546-0.667c-0.904-0.11-1.659-0.164-2.261-0.162
				c-0.83,0.003-1.694,0.064-2.599,0.182c-0.903,0.115-1.749,0.384-2.538,0.8c-0.791,0.417-1.465,1.005-2.027,1.76
				c-0.563,0.756-0.917,1.774-1.062,3.055l-22.601,0.09c-0.014-3.163,0.558-5.972,1.718-8.426c1.157-2.451,3.031-4.532,5.624-6.237
				c2.594-1.706,5.92-3.018,9.986-3.939c4.064-0.92,9.036-1.393,14.911-1.416c7.007-0.028,12.488,0.572,16.45,1.799
				c3.96,1.228,6.941,2.93,8.948,5.107c2.004,2.177,3.24,4.752,3.704,7.725c0.463,2.976,0.703,6.232,0.717,9.773l0.11,27.685
				c0.007,1.734,0.162,3.108,0.468,4.123c0.303,1.016,1.214,2.163,2.726,3.437l0.005,1.13L1318.6,309.885z M1305.783,298.296
				c2.035-0.008,3.745-0.391,5.139-1.15c1.39-0.759,2.496-1.799,3.321-3.12c0.823-1.321,1.381-2.867,1.676-4.641
				c0.295-1.771,0.361-3.674,0.204-5.707c-1.957,0.912-3.969,1.58-6.039,2c-2.072,0.424-3.99,0.883-5.758,1.38
				c-1.768,0.498-3.217,1.199-4.342,2.108c-1.126,0.908-1.686,2.307-1.678,4.188c0.006,1.509,0.668,2.709,1.991,3.607
				C1301.62,297.86,1303.449,298.306,1305.783,298.296z"/>
			<path fill="#FFFFFF" d="M1351.813,250.535l21.471-0.086l0.037,9.268c2.621-3.551,5.494-6.275,8.612-8.171
				c3.118-1.896,6.899-2.854,11.346-2.872c7.835-0.032,13.627,2.132,17.373,6.486c3.745,4.355,5.636,10.639,5.669,18.85
				l0.142,35.483l-23.505,0.094l-0.125-31.302c-0.006-1.431-0.124-2.825-0.355-4.179c-0.232-1.356-0.67-2.541-1.314-3.555
				c-0.645-1.015-1.496-1.82-2.553-2.42c-1.058-0.598-2.415-0.894-4.07-0.887c-3.617,0.015-6.043,1.097-7.276,3.249
				c-1.235,2.152-1.844,5.15-1.828,8.992l0.12,30.172l-23.505,0.095L1351.813,250.535z"/>
			<path fill="#FFFFFF" d="M1466.523,309.293c-7.684,0.481-13.824,0.618-18.419,0.412c-4.597-0.206-8.083-1.021-10.463-2.444
				c-2.378-1.42-3.934-3.616-4.66-6.592c-0.729-2.973-1.103-7.02-1.122-12.144l-0.1-24.749l-8.361,0.033l-0.054-13.561l8.701-0.035
				l-0.074-18.42l23.166-0.092l0.073,18.419l11.301-0.045l0.055,13.561l-11.301,0.045l0.086,21.556
				c0.006,1.361,0.084,2.515,0.24,3.459c0.153,0.946,0.477,1.699,0.97,2.266c0.491,0.564,1.228,0.978,2.208,1.237
				c0.979,0.263,2.299,0.39,3.957,0.383l3.729-0.015L1466.523,309.293z"/>
			<path fill="#FFFFFF" d="M1477.811,250.031l21.358-0.085l0.048,11.979l0.228-0.001c1.636-4.676,3.923-8.132,6.852-10.366
				c2.929-2.233,6.69-3.362,11.287-3.38c0.525-0.002,1.034,0.036,1.524,0.108c0.491,0.073,1,0.146,1.527,0.218l0.095,23.506
				c-0.831-0.146-1.64-0.293-2.433-0.441c-0.792-0.146-1.602-0.22-2.43-0.217c-4.822,0.019-8.435,1.315-10.833,3.886
				c-2.403,2.571-3.589,7.06-3.563,13.462l0.081,20.453l-23.505,0.095L1477.811,250.031z"/>
			<path fill="#FFFFFF" d="M1558.98,286.209l10.137-36.543l22.601-0.09l-18.764,55.335c-1.563,4.601-3,8.449-4.305,11.545
				c-1.307,3.093-2.955,5.566-4.943,7.421c-1.987,1.854-4.563,3.184-7.724,3.987c-3.162,0.804-7.342,1.215-12.539,1.235
				c-2.186,0.009-4.238-0.059-6.16-0.201c-1.922-0.144-3.335-0.212-4.237-0.208l-0.065-16.386c0.828-0.004,1.638,0.011,2.429,0.046
				c0.792,0.034,1.601,0.05,2.431,0.047c3.689-0.015,6.023-0.646,6.998-1.893c0.974-1.247,0.851-3.523-0.367-6.835l-19.65-53.827
				l23.617-0.094L1558.98,286.209z"/>
		</g>
	</g>
	<g id="Layer_2_copy">
	</g>
	<g id="Layer_3_copy_2">
	</g>
	<g id="Layer_10_copy">
	</g>
	<g id="Layer_6_copy">
		<g>
			<path fill="#FFFFFF" d="M476.5,131l-138,138l138,138l138.001-138L476.5,131z M447.842,344.4
				c-0.441-1.423-0.768-2.838-0.925-4.233c-2-17.75,12.401-26.758,29.167-27.834c18.167-1.166,23.958,8.438,23.424,7.007
				c-2.634-7.055-8.216-11.048-15.157-13.476c-3.171-1.109-6.56-1.819-11.169-1.819c-1.932,0-3.883,0.096-5.771,0.188
				c-1.734,0.086-3.699,0.183-5.535,0.183c-0.52,0-1.038-0.007-1.555-0.024c-7.505-0.251-16.371-8.198-13.947-20.141
				s9.103-14.138,8.875-14.667c-0.231-0.534-2.357,0.302-2.543,0.38c-6.192,2.634-11.587,8.762-13.582,15.537
				c-1.489,5.052-0.278,11.874,2.292,15.898c-0.162,0.124-7.042,0.227-18.042,7.102c-2.48,1.55-4.521,3.358-6.191,5.243
				l-29.67-29.67c1.774-13.479,8.236-29.431,24.397-38.093c1.167-0.625,2.413-1.229,3.619-1.813
				c0.891-0.432,1.782-0.864,2.658-1.311l2.68-1.368c3.197-1.631,12.257-6.114,12.257-6.114s-0.229,3.417,0.208,3.542
				c0.249,0.071,5.417-5.417,8.5-10.667s3.833-8.667,4.667-9.25c0.442-0.31,8.834,2.954,15.583,8.167
				c5.96,4.604,14.917,14.771,15.229,14.708s-2.438-8.813-7.188-14.375c1.68-0.065,31.829,1.674,44.75,6.75
				c6.944,2.728,17.897,8.628,24.595,15.46c4.522,4.617,8.704,9.835,12.743,14.944c-1.879-1.021-3.857-1.838-5.796-2.638
				l-0.943-0.39c-8.459-3.514-23.316-6.394-23.421-5.69c-0.1,0.696,23.587,8.777,33.146,16.114l-11.999,9.247
				c-0.236,0.182-0.481,0.375-0.731,0.573c-1.729,1.364-3.879,3.062-5.841,3.062c-0.449,0-0.887-0.091-1.299-0.271
				c-1.359-0.593-2.358-2.324-3.239-3.852c-0.192-0.333-0.379-0.654-0.563-0.958c-2.888-4.742-6.117-7.031-10.799-7.657
				c-0.597-0.079-1.216-0.119-1.841-0.119c-4.465,0-8.787,1.937-13.189,4.094c-5.015,2.456-20.889,11.537-14.623,25.284
				c1.785,3.911,6.103,6.972,11.553,8.188c0.252,0.056,0.508,0.106,0.764,0.152c2.716,2.739,6.237,4.46,9.895,4.864
				c-0.858,1.405-1.92,4.366-4.41,6.28c-2.648,2.037-6.261,2.063-6.344,2.313s6.095,2.668,12.053-0.604
				c2.522-1.386,7.03-4.881,9.291-9.458c3.079-6.231,3.648-13.473,3.414-13.473c-1.403,0-4.887,3.708-5.205,3.118
				c-0.517-0.956-0.792-2.125-0.792-2.125s-1.003,0.519-1.354,0.646c-4.11,1.494-9.019,2.658-13.094,2.659
				c-1.223,0-2.416-0.127-3.547-0.378c-4.574-1.016-7.644-4.481-7.638-8.624c0.006-4.019,2.916-7.827,8.647-11.32
				c5.434-3.311,9.85-5.065,13.896-5.519c2.277-0.255,4.036,0.268,5.672,1.742c1.823,5.057,1.902,10.608,0.22,15.657l-0.563,1.689
				l1.877,0.015c4.561,0,10.842-5.608,11.759-6.025c3.533-1.606,9.452-3.807,16-8.75c6.078-4.587,12.954-10.092,13-10.5
				c0.448-3.92-13.807-20.756-19.167-26c-6.564-6.422-20-17.125-34.5-21.5s-43.53-5.958-48-5.333c-8.167-5.667-17-8.25-24-9.667
				c-0.798-0.161-1.5,4.333-3.25,7.833s-4.375,6.167-4.375,6.167s-12.8,5.221-25.098,10.164L476.5,164.94L580.56,269L476.5,373.059
				L447.842,344.4z"/>
			<path fill="#FFFFFF" d="M489.25,254.375c21.333,3.833,34.376,13.334,35.126,13.792s4.25,2.625,5.666,1.125
				c1.822-1.93-1.708-4.083-1.708-4.083s-15.355-9.281-33.167-13.542c-23.167-5.542-52,0.167-52,0.167
				S468.322,250.614,489.25,254.375z"/>
			<path fill="#FFFFFF" d="M509.804,266.463c1.29-2.32-2.663-3.536-2.663-3.536s-17.171-5.205-35.482-4.94
				c-23.818,0.345-50.353,12.991-50.353,12.991s24.078-7.388,45.286-8.907c21.619-1.548,36.603,4.441,37.443,4.7
				C504.875,267.03,508.802,268.266,509.804,266.463z"/>
			<path fill="#FFFFFF" d="M521.681,251.499c7.406,3.483,16,1.443,16,1.443c-9.813-5.438-11.18-7.493-18.258-11.631
				c-7.077-4.135-18.249-3.781-18.249-3.781s10.009,3.872,11.543,5.308C514.249,244.272,514.271,248.016,521.681,251.499z"/>
		</g>
	</g>
</g>
</svg>
