<?xml version="1.0" encoding="utf-8"?>
<!-- Generator: Adobe Illustrator 16.0.0, SVG Export Plug-In . SVG Version: 6.00 Build 0)  -->
<!DOCTYPE svg PUBLIC "-//W3C//DTD SVG 1.1//EN" "http://www.w3.org/Graphics/SVG/1.1/DTD/svg11.dtd">
<svg version="1.1" xmlns="http://www.w3.org/2000/svg" xmlns:xlink="http://www.w3.org/1999/xlink" x="0px" y="0px"
	 width="276.001px" height="276px" viewBox="338.5 131 276.001 276" enable-background="new 338.5 131 276.001 276"
	 xml:space="preserve">
<g id="Original" display="none">
	<g id="Layer_2" display="inline">
		<path d="M476.5,164.94L580.56,269L476.5,373.059L372.441,269L476.5,164.94 M476.5,131l-138,138l138,138l138.001-138L476.5,131
			L476.5,131z"/>
	</g>
	<g id="Layer_3">
		<g display="inline">
			<path d="M484.351,305.864c-3.171-1.109-6.56-1.819-11.169-1.819c-1.932,0-3.883,0.096-5.771,0.188
				c-1.734,0.086-3.699,0.183-5.535,0.183c-0.52,0-1.038-0.007-1.555-0.024c-7.505-0.251-16.371-8.198-13.947-20.141
				s9.103-14.138,8.875-14.667c-0.231-0.534-2.357,0.302-2.543,0.38c-6.192,2.634-11.587,8.762-13.582,15.537
				c-1.489,5.052-0.278,11.874,2.292,15.898c-0.162,0.124-7.042,0.227-18.042,7.102s-13.409,18.817-12.802,19.994
				C411.096,329.509,476,379,476,379c-0.084-0.174-27.083-21.083-29.083-38.833s12.401-26.758,29.167-27.834
				c18.167-1.166,23.958,8.438,23.424,7.007C496.874,312.285,491.292,308.292,484.351,305.864z"/>
			<path d="M437.256,244.81c-0.047,0.73,33.91,6.828,49.114,10.669c7.331,1.853,15.015,4.052,23.491,6.723
				c3.334,1.051,6.689,2.25,9.95,3.415c4.326,1.545,8.8,3.144,13.301,4.423c0.173,0.048,0.349,0.073,0.522,0.073
				c0.895,0,1.695-0.657,1.904-1.566c0.2-0.877-0.205-1.728-1.01-2.116c-6.367-3.066-13.283-5.205-19.983-7.277l-2.393-0.741
				c-7.497-2.335-15.612-4.539-24.81-6.738C471.454,247.879,437.305,244.075,437.256,244.81z"/>
			<path d="M417.033,256.875c0.009,0.771,33.818,2.416,49.047,4.171c7.589,0.874,15.614,2.062,24.533,3.63
				c3.575,0.629,7.202,1.411,10.709,2.167c4.546,0.981,9.246,1.996,13.952,2.701c0.104,0.014,0.204,0.021,0.303,0.021
				c0.982,0,1.807-0.7,1.961-1.662c0.154-0.948-0.393-1.826-1.331-2.134c-6.797-2.238-14.023-3.469-21.012-4.658l-2.561-0.437
				c-7.234-1.248-15.085-2.322-24-3.286C455.744,255.996,417.025,256.106,417.033,256.875z"/>
			<path d="M547,246c-6.564-6.422-20-17.125-34.5-21.5s-43.53-5.958-48-5.333c-8.167-5.667-17-8.25-24-9.667
				c-0.798-0.161-1.5,4.333-3.25,7.833s-4.375,6.167-4.375,6.167s-37.011,15.096-45.625,18.25
				c-13.257,4.855-24.196,15.921-28.043,18.41c-4.693,3.036,27.661,34.039,27.793,30.09c0.48-14.42,6.193-34.237,24.912-44.27
				c1.167-0.625,2.413-1.229,3.619-1.813c0.891-0.432,1.782-0.864,2.658-1.311l2.68-1.368c3.197-1.631,12.257-6.114,12.257-6.114
				s-0.229,3.417,0.208,3.542c0.249,0.071,5.417-5.417,8.5-10.667s3.833-8.667,4.667-9.25c0.442-0.31,8.834,2.954,15.583,8.167
				c5.96,4.604,14.917,14.771,15.229,14.708s-2.438-8.813-7.188-14.375c1.68-0.065,31.829,1.674,44.75,6.75
				c6.944,2.728,17.897,8.628,24.595,15.46c4.522,4.617,8.704,9.835,12.743,14.944c-1.879-1.021-3.857-1.838-5.796-2.638
				l-0.943-0.39c-8.459-3.514-23.316-6.394-23.421-5.69c-0.1,0.696,23.587,8.777,33.146,16.114l-11.999,9.247
				c-0.236,0.182-0.481,0.375-0.731,0.573c-1.729,1.364-3.879,3.062-5.841,3.062c-0.449,0-0.887-0.091-1.299-0.271
				c-1.359-0.593-2.358-2.324-3.239-3.852c-0.192-0.333-0.379-0.654-0.563-0.958c-2.888-4.742-6.117-7.031-10.799-7.657
				c-0.597-0.079-1.216-0.119-1.841-0.119c-4.465,0-8.787,1.937-13.189,4.094c-5.015,2.456-20.889,11.537-14.623,25.284
				c1.785,3.911,6.103,6.972,11.553,8.188c0.252,0.056,0.508,0.106,0.764,0.152c2.716,2.739,6.237,4.46,9.895,4.864
				c-0.858,1.405-1.92,4.366-4.41,6.28c-2.648,2.037-6.261,2.063-6.344,2.313s6.095,2.668,12.053-0.604
				c2.522-1.386,7.03-4.881,9.291-9.458c3.079-6.231,3.648-13.473,3.414-13.473c-1.403,0-4.887,3.708-5.205,3.118
				c-0.517-0.956-0.792-2.125-0.792-2.125s-1.003,0.519-1.354,0.646c-4.11,1.494-9.019,2.658-13.094,2.659
				c-1.223,0-2.416-0.127-3.547-0.378c-4.574-1.016-7.644-4.481-7.638-8.624c0.006-4.019,2.916-7.827,8.647-11.32
				c5.434-3.311,9.85-5.065,13.896-5.519c2.277-0.255,4.036,0.268,5.672,1.742c1.823,5.057,1.902,10.608,0.22,15.657l-0.563,1.689
				l1.877,0.015c4.561,0,10.842-5.608,11.759-6.025c3.533-1.606,9.452-3.807,16-8.75c6.078-4.587,12.954-10.092,13-10.5
				C566.615,268.08,552.36,251.244,547,246z"/>
			<path d="M504.626,247.042c0.102,0.749,8.026,0.748,8.184,0.672c6.343,2.532,21.035,6.616,22.645,5.983
				c0.343-0.135-1.823-2.42-5.329-4.947c-6.029-4.346-15.805-10.148-21.115-12.289c-0.213-0.086-0.434-0.129-0.657-0.129
				c-0.62,0-1.186,0.332-1.508,0.88c-0.347,0.576-0.369,1.287-0.059,1.854c0.76,1.393,1.424,2.89,2.066,4.338
				c0.196,0.443,0.394,0.887,0.593,1.328l-0.018,0.002C508.191,244.922,504.521,246.297,504.626,247.042z"/>
		</g>
	</g>
	<g id="Layer_3_copy" display="inline">
		<g>
			<path d="M484.351,305.864c-3.171-1.109-6.56-1.819-11.169-1.819c-1.932,0-3.883,0.096-5.771,0.188
				c-1.734,0.086-3.699,0.183-5.535,0.183c-0.52,0-1.038-0.007-1.555-0.024c-7.505-0.251-16.371-8.198-13.947-20.141
				s9.103-14.138,8.875-14.667c-0.231-0.534-2.357,0.302-2.543,0.38c-6.192,2.634-11.587,8.762-13.582,15.537
				c-1.489,5.052-0.278,11.874,2.292,15.898c-0.162,0.124-7.042,0.227-18.042,7.102s-13.409,18.817-12.802,19.994
				C411.096,329.509,476,379,476,379c-0.084-0.174-27.083-21.083-29.083-38.833s12.401-26.758,29.167-27.834
				c18.167-1.166,23.958,8.438,23.424,7.007C496.874,312.285,491.292,308.292,484.351,305.864z"/>
			<path d="M547,246c-6.564-6.422-20-17.125-34.5-21.5s-43.53-5.958-48-5.333c-8.167-5.667-17-8.25-24-9.667
				c-0.798-0.161-1.5,4.333-3.25,7.833s-4.375,6.167-4.375,6.167s-37.011,15.096-45.625,18.25
				c-13.257,4.855-24.196,15.921-28.043,18.41c-4.693,3.036,27.661,34.039,27.793,30.09c0.48-14.42,6.193-34.237,24.912-44.27
				c1.167-0.625,2.413-1.229,3.619-1.813c0.891-0.432,1.782-0.864,2.658-1.311l2.68-1.368c3.197-1.631,12.257-6.114,12.257-6.114
				s-0.229,3.417,0.208,3.542c0.249,0.071,5.417-5.417,8.5-10.667s3.833-8.667,4.667-9.25c0.442-0.31,8.834,2.954,15.583,8.167
				c5.96,4.604,14.917,14.771,15.229,14.708s-2.438-8.813-7.188-14.375c1.68-0.065,31.829,1.674,44.75,6.75
				c6.944,2.728,17.897,8.628,24.595,15.46c4.522,4.617,8.704,9.835,12.743,14.944c-1.879-1.021-3.857-1.838-5.796-2.638
				l-0.943-0.39c-8.459-3.514-23.316-6.394-23.421-5.69c-0.1,0.696,23.587,8.777,33.146,16.114l-11.999,9.247
				c-0.236,0.182-0.481,0.375-0.731,0.573c-1.729,1.364-3.879,3.062-5.841,3.062c-0.449,0-0.887-0.091-1.299-0.271
				c-1.359-0.593-2.358-2.324-3.239-3.852c-0.192-0.333-0.379-0.654-0.563-0.958c-2.888-4.742-6.117-7.031-10.799-7.657
				c-0.597-0.079-1.216-0.119-1.841-0.119c-4.465,0-8.787,1.937-13.189,4.094c-5.015,2.456-20.889,11.537-14.623,25.284
				c1.785,3.911,6.103,6.972,11.553,8.188c0.252,0.056,0.508,0.106,0.764,0.152c2.716,2.739,6.237,4.46,9.895,4.864
				c-0.858,1.405-1.92,4.366-4.41,6.28c-2.648,2.037-6.261,2.063-6.344,2.313s6.095,2.668,12.053-0.604
				c2.522-1.386,7.03-4.881,9.291-9.458c3.079-6.231,3.648-13.473,3.414-13.473c-1.403,0-4.887,3.708-5.205,3.118
				c-0.517-0.956-0.792-2.125-0.792-2.125s-1.003,0.519-1.354,0.646c-4.11,1.494-9.019,2.658-13.094,2.659
				c-1.223,0-2.416-0.127-3.547-0.378c-4.574-1.016-7.644-4.481-7.638-8.624c0.006-4.019,2.916-7.827,8.647-11.32
				c5.434-3.311,9.85-5.065,13.896-5.519c2.277-0.255,4.036,0.268,5.672,1.742c1.823,5.057,1.902,10.608,0.22,15.657l-0.563,1.689
				l1.877,0.015c4.561,0,10.842-5.608,11.759-6.025c3.533-1.606,9.452-3.807,16-8.75c6.078-4.587,12.954-10.092,13-10.5
				C566.615,268.08,552.36,251.244,547,246z"/>
			<path d="M504.626,247.042c0.102,0.749,8.026,0.748,8.184,0.672c6.343,2.532,21.035,6.616,22.645,5.983
				c0.343-0.135-1.823-2.42-5.329-4.947c-6.029-4.346-15.805-10.148-21.115-12.289c-0.213-0.086-0.434-0.129-0.657-0.129
				c-0.62,0-1.186,0.332-1.508,0.88c-0.347,0.576-0.369,1.287-0.059,1.854c0.76,1.393,1.424,2.89,2.066,4.338
				c0.196,0.443,0.394,0.887,0.593,1.328l-0.018,0.002C508.191,244.922,504.521,246.297,504.626,247.042z"/>
		</g>
	</g>
	<g id="Layer_10" display="inline">
		<path d="M528.334,265.208c0,0-15.355-9.281-33.167-13.542c-23.167-5.542-52,0.167-52,0.167s25.155-1.219,46.083,2.542
			c21.333,3.833,34.376,13.334,35.126,13.792s4.25,2.625,5.666,1.125C531.864,267.362,528.334,265.208,528.334,265.208z"/>
		<path d="M507.141,262.927c0,0-17.171-5.205-35.482-4.94c-23.818,0.345-50.353,12.991-50.353,12.991s24.078-7.388,45.286-8.907
			c21.619-1.548,36.603,4.441,37.443,4.7c0.84,0.259,4.767,1.495,5.769-0.308C511.094,264.144,507.141,262.927,507.141,262.927z"/>
	</g>
	<g id="Layer_4" display="inline">
	</g>
	<g id="Layer_8" display="inline">
		<g>
			<g>
				<path fill="#FFFFFF" d="M501.166,246.75c5.804,0,5.804-9,0-9S495.362,246.75,501.166,246.75L501.166,246.75z"/>
			</g>
		</g>
		<g>
			<g>
				<path fill="#FFFFFF" d="M500.916,246.75c5.16,0.464,10.379,3.866,15.138,5.756c4.292,1.705,7.486-4.58,4.378-7.521
					c-2.949-2.791-7.841-4.936-9.88-8.506c-2.356,1.818-4.712,3.636-7.067,5.454c2.598,2.86,7.566,4.77,11.01,6.439
					c5.166,2.504,10.526,4.604,15.734,7.014c5.23,2.421,9.806-5.335,4.543-7.771c-4.716-2.183-9.508-4.205-14.25-6.333
					c-2.01-0.902-3.909-1.872-5.75-3.083c-1.541-1.014-3.674-1.253-4.924-2.63c-3.505-3.859-9.561,1.089-7.067,5.454
					c2.593,4.54,7.602,6.839,11.288,10.328c1.459-2.507,2.919-5.014,4.378-7.521c-5.739-2.279-11.288-5.516-17.53-6.078
					C495.134,237.229,495.184,246.234,500.916,246.75L500.916,246.75z"/>
			</g>
		</g>
	</g>
	<g id="Layer_6" display="inline">
		<path d="M501.174,237.529c0,0,11.172-0.354,18.249,3.781c7.078,4.138,8.445,6.193,18.258,11.631c0,0-8.594,2.04-16-1.443
			c-7.409-3.482-7.432-7.226-8.964-8.662C511.183,241.401,501.174,237.529,501.174,237.529z"/>
	</g>
</g>
<g id="Final">
	<g id="Layer_4_copy">
	</g>
	<g id="Layer_2_copy">
	</g>
	<g id="Layer_3_copy_2">
	</g>
	<g id="Layer_10_copy">
	</g>
	<g id="Layer_6_copy">
		<g>
			<path d="M476.5,131l-138,138l138,138l138.001-138L476.5,131z M447.842,344.4c-0.441-1.423-0.768-2.838-0.925-4.233
				c-2-17.75,12.401-26.758,29.167-27.834c18.167-1.166,23.958,8.438,23.424,7.007c-2.634-7.055-8.216-11.048-15.157-13.476
				c-3.171-1.109-6.56-1.819-11.169-1.819c-1.932,0-3.883,0.096-5.771,0.188c-1.734,0.086-3.699,0.183-5.535,0.183
				c-0.52,0-1.038-0.007-1.555-0.024c-7.505-0.251-16.371-8.198-13.947-20.141s9.103-14.138,8.875-14.667
				c-0.231-0.534-2.357,0.302-2.543,0.38c-6.192,2.634-11.587,8.762-13.582,15.537c-1.489,5.052-0.278,11.874,2.292,15.898
				c-0.162,0.124-7.042,0.227-18.042,7.102c-2.48,1.55-4.521,3.358-6.191,5.243l-29.67-29.67
				c1.774-13.479,8.236-29.431,24.397-38.093c1.167-0.625,2.413-1.229,3.619-1.813c0.891-0.432,1.782-0.864,2.658-1.311l2.68-1.368
				c3.197-1.631,12.257-6.114,12.257-6.114s-0.229,3.417,0.208,3.542c0.249,0.071,5.417-5.417,8.5-10.667s3.833-8.667,4.667-9.25
				c0.442-0.31,8.834,2.954,15.583,8.167c5.96,4.604,14.917,14.771,15.229,14.708s-2.438-8.813-7.188-14.375
				c1.68-0.065,31.829,1.674,44.75,6.75c6.944,2.728,17.897,8.628,24.595,15.46c4.522,4.617,8.704,9.835,12.743,14.944
				c-1.879-1.021-3.857-1.838-5.796-2.638l-0.943-0.39c-8.459-3.514-23.316-6.394-23.421-5.69
				c-0.1,0.696,23.587,8.777,33.146,16.114l-11.999,9.247c-0.236,0.182-0.481,0.375-0.731,0.573
				c-1.729,1.364-3.879,3.062-5.841,3.062c-0.449,0-0.887-0.091-1.299-0.271c-1.359-0.593-2.358-2.324-3.239-3.852
				c-0.192-0.333-0.379-0.654-0.563-0.958c-2.888-4.742-6.117-7.031-10.799-7.657c-0.597-0.079-1.216-0.119-1.841-0.119
				c-4.465,0-8.787,1.937-13.189,4.094c-5.015,2.456-20.889,11.537-14.623,25.284c1.785,3.911,6.103,6.972,11.553,8.188
				c0.252,0.056,0.508,0.106,0.764,0.152c2.716,2.739,6.237,4.46,9.895,4.864c-0.858,1.405-1.92,4.366-4.41,6.28
				c-2.648,2.037-6.261,2.063-6.344,2.313s6.095,2.668,12.053-0.604c2.522-1.386,7.03-4.881,9.291-9.458
				c3.079-6.231,3.648-13.473,3.414-13.473c-1.403,0-4.887,3.708-5.205,3.118c-0.517-0.956-0.792-2.125-0.792-2.125
				s-1.003,0.519-1.354,0.646c-4.11,1.494-9.019,2.658-13.094,2.659c-1.223,0-2.416-0.127-3.547-0.378
				c-4.574-1.016-7.644-4.481-7.638-8.624c0.006-4.019,2.916-7.827,8.647-11.32c5.434-3.311,9.85-5.065,13.896-5.519
				c2.277-0.255,4.036,0.268,5.672,1.742c1.823,5.057,1.902,10.608,0.22,15.657l-0.563,1.689l1.877,0.015
				c4.561,0,10.842-5.608,11.759-6.025c3.533-1.606,9.452-3.807,16-8.75c6.078-4.587,12.954-10.092,13-10.5
				c0.448-3.92-13.807-20.756-19.167-26c-6.564-6.422-20-17.125-34.5-21.5s-43.53-5.958-48-5.333c-8.167-5.667-17-8.25-24-9.667
				c-0.798-0.161-1.5,4.333-3.25,7.833s-4.375,6.167-4.375,6.167s-12.8,5.221-25.098,10.164L476.5,164.94L580.56,269L476.5,373.059
				L447.842,344.4z"/>
			<path d="M489.25,254.375c21.333,3.833,34.376,13.334,35.126,13.792s4.25,2.625,5.666,1.125c1.822-1.93-1.708-4.083-1.708-4.083
				s-15.355-9.281-33.167-13.542c-23.167-5.542-52,0.167-52,0.167S468.322,250.614,489.25,254.375z"/>
			<path d="M509.804,266.463c1.29-2.32-2.663-3.536-2.663-3.536s-17.171-5.205-35.482-4.94
				c-23.818,0.345-50.353,12.991-50.353,12.991s24.078-7.388,45.286-8.907c21.619-1.548,36.603,4.441,37.443,4.7
				C504.875,267.03,508.802,268.266,509.804,266.463z"/>
			<path d="M521.681,251.499c7.406,3.483,16,1.443,16,1.443c-9.813-5.438-11.18-7.493-18.258-11.631
				c-7.077-4.135-18.249-3.781-18.249-3.781s10.009,3.872,11.543,5.308C514.249,244.272,514.271,248.016,521.681,251.499z"/>
		</g>
	</g>
</g>
</svg>
